<svg xmlns="http://www.w3.org/2000/svg" width="64" height="64" fill="none" viewBox="0 0 64 64">
    <path fill="#191847" fill-rule="evenodd" d="M35.028 4.128c-8.861 0-16.045 7.183-16.045 16.045v14.163c0 8.038 5.91 14.695 13.622 15.863l.011.198h20.68c3.434-3.4-.274-25.997-2.758-34.349-1.82-6.863-8.074-11.92-15.51-11.92z" clip-rule="evenodd"/>
    <path fill="#B28B67" fill-rule="evenodd" d="M35.34 38.994c4.617 2.821 9.154 4.184 11.284 3.628 5.34-1.396 5.831-21.196 1.7-29.002C44.19 5.814 22.946 2.41 21.876 17.878c-.372 5.367 1.852 10.158 5.138 14.067l-5.892 27.831h17.115l-2.899-20.782z" clip-rule="evenodd"/>
    <path fill="#191847" fill-rule="evenodd" d="M19.612 17.968c.497-.498.978-.98 1.455-1.411l-.023-.562S26.415 4.85 34.672 4.85c8.25 0 10.86 3.888 13.077 7.192l.006.009c-1.16 4.034-4.656 5.666-8.61 7.512-1.703.795-3.49 1.63-5.212 2.712a3.874 3.874 0 0 0-2.471-.889c-2.166 0-3.922 1.78-3.922 3.975 0 2.195 1.756 3.975 3.922 3.975.06 0 .12-.001.178-.004.789 8.584.473 18.387-1.877 20.715H9.084c-.594-10.454 2.074-13.436 4.8-16.483 2.566-2.867 5.183-5.792 5.183-15.052l.545-.544z" clip-rule="evenodd"/>
</svg>
