<svg xmlns="http://www.w3.org/2000/svg" width="112" height="84" fill="none" viewBox="0 0 112 84">
    <circle cx="5" cy="53" r="4.866" fill="#EAEBF0" stroke="#A2A5B1" stroke-dasharray="1 1" stroke-width=".269" opacity=".5"/>
    <circle cx="28.5" cy="33.5" r="17.366" fill="#EAEBF0" stroke="#A2A5B1" stroke-dasharray="1 1" stroke-width=".269" opacity=".5"/>
    <circle cx="108" cy="4" r="3.866" fill="#EAEBF0" stroke="#A2A5B1" stroke-dasharray="1 1" stroke-width=".269" opacity=".5"/>
    <circle cx="88" cy="6" r="1.866" fill="#F8F8FA" stroke="#A2A5B1" stroke-dasharray="1 1" stroke-width=".269" opacity=".5"/>
    <circle cx="98" cy="79" r="2.866" fill="#C8C9D1" stroke="#A2A5B1" stroke-dasharray="1 1" stroke-width=".269" opacity=".5"/>
    <circle cx="66" cy="3" r="1.866" fill="#A2A5B1" stroke="#A2A5B1" stroke-dasharray="1 1" stroke-width=".269" opacity=".5"/>
    <circle cx="110" cy="74" r="1.866" fill="#A2A5B1" stroke="#A2A5B1" stroke-dasharray="1 1" stroke-width=".269" opacity=".5"/>
    <rect width="80" height="40" x="28.445" y="11" fill="#EAEBF0" rx="2"/>
    <rect width="28" height="3" x="37.445" y="22" fill="#C8C9D1" rx="1.5"/>
    <rect width="26" height="3" x="37.445" y="29.5" fill="#A2A5B1" rx="1.5"/>
    <rect width="80" height="40" x="19" y="28.6" fill="#fff" filter="url(#a)" rx="2"/>
    <rect width="44" height="3" x="27.445" y="40" fill="#C8C9D1" rx="1.5"/>
    <rect width="53" height="3" x="27.445" y="47" fill="#EAEBF0" rx="1.5"/>
    <rect width="20" height="3" x="27.445" y="54" fill="#EAEBF0" rx="1.5"/>
    <defs>
        <filter id="a" width="100" height="60" x="11" y="23.6" color-interpolation-filters="sRGB" filterUnits="userSpaceOnUse">
            <feFlood flood-opacity="0" result="BackgroundImageFix"/>
            <feColorMatrix in="SourceAlpha" values="0 0 0 0 0 0 0 0 0 0 0 0 0 0 0 0 0 0 127 0"/>
            <feOffset dx="2" dy="5"/>
            <feGaussianBlur stdDeviation="5"/>
            <feColorMatrix values="0 0 0 0 0 0 0 0 0 0 0 0 0 0 0 0 0 0 0.08 0"/>
            <feBlend in2="BackgroundImageFix" mode="multiply" result="effect1_dropShadow"/>
            <feBlend in="SourceGraphic" in2="effect1_dropShadow" result="shape"/>
        </filter>
    </defs>
</svg>
