<svg xmlns="http://www.w3.org/2000/svg" width="24" height="24" fill="none" viewBox="0 0 24 24">
    <path fill="#54555d" fill-rule="evenodd" d="M18.355 14.645L17 13.295V11a5 5 0 0 0-4.5-4.975V5h-1v1.025A5 5 0 0 0 7 11v2.295l-1.355 1.35A.5.5 0 0 0 5.5 15v1.5a.5.5 0 0 0 .5.5h3.5a2.5 2.5 0 0 0 5 0H18a.5.5 0 0 0 .5-.5V15a.5.5 0 0 0-.145-.355zM12 18.5a1.5 1.5 0 0 1-1.5-1.5h3a1.5 1.5 0 0 1-1.5 1.5zm5.5-2.5h-11v-.795l1.355-1.355A.5.5 0 0 0 8 13.5V11a4 4 0 1 1 8 0v2.5a.5.5 0 0 0 .145.355l1.355 1.35V16z" clip-rule="evenodd"/>
</svg>
