<svg xmlns="http://www.w3.org/2000/svg" width="24" height="24" fill="none" viewBox="0 0 24 24">
    <path fill="#202124" fill-rule="evenodd" d="M19.968 11.815C18.685 8.424 15.553 6.138 12 6c-3.553.138-6.685 2.424-7.968 5.815a.557.557 0 0 0 0 .37C5.315 15.576 8.447 17.862 12 18c3.553-.138 6.685-2.424 7.968-5.815a.557.557 0 0 0 0-.37zM12 17c-2.87 0-5.901-2.183-7-5 1.099-2.817 4.13-5 7-5s5.901 2.183 7 5c-1.099 2.817-4.13 5-7 5zm0-8a3 3 0 1 0 0 6 3 3 0 0 0 0-6zm0 5a2 2 0 1 1 0-4 2 2 0 0 1 0 4z" clip-rule="evenodd"/>
</svg>
