<svg xmlns="http://www.w3.org/2000/svg" width="24" height="24" fill="none" viewBox="0 0 24 24">
    <path fill="#2f53d7" fill-rule="evenodd" d="M17.375 9.25a1.875 1.875 0 1 1 0 3.75 1.875 1.875 0 0 1 0-3.75zm0-1.25a3.125 3.125 0 1 0 0 6.25 3.125 3.125 0 0 0 0-6.25zm4.375 12.5H20.5v-1.875c0-1.035-.84-1.875-1.875-1.875h-2.5c-1.036 0-1.875.84-1.875 1.875V20.5H13v-1.875c0-1.726 1.4-3.125 3.125-3.125h2.5c1.726 0 3.125 1.4 3.125 3.125V20.5zM7.375 4.25a1.875 1.875 0 1 1 0 3.75 1.875 1.875 0 0 1 0-3.75zm0-1.25a3.125 3.125 0 1 0 0 6.25 3.125 3.125 0 0 0 0-6.25zm4.375 12.5H10.5v-1.875c0-1.036-.84-1.875-1.875-1.875h-2.5c-1.036 0-1.875.84-1.875 1.875V15.5H3v-1.875C3 11.899 4.4 10.5 6.125 10.5h2.5c1.726 0 3.125 1.4 3.125 3.125V15.5z" clip-rule="evenodd"/>
</svg>
